<?xml version="1.0" encoding="iso-8859-1"?>
<!-- Generator: Adobe Illustrator 15.1.0, SVG Export Plug-In . SVG Version: 6.00 Build 0)  -->
<!DOCTYPE svg PUBLIC "-//W3C//DTD SVG 1.1//EN" "http://www.w3.org/Graphics/SVG/1.1/DTD/svg11.dtd">
<svg version="1.1" id="Layer_1" xmlns="http://www.w3.org/2000/svg" xmlns:xlink="http://www.w3.org/1999/xlink" x="0px" y="0px"
	 width="1648px" height="1510px" viewBox="0 0 1648 1510" style="enable-background:new 0 0 1648 1510;" xml:space="preserve">
<g>
	<g>
		<g>
			<path style="fill:#815121;" d="M-57.068,310.883c58.494,4.847,50.471,504.881,44.121,597.366
				c-14.831,215.993,0.185,375.852-69.62,605.069c168.562-2.801,223.946,7.221,385.481-2.561
				c-50.733-180.102-7.631-300.364-38.999-599.875c-6.005-57.335,28.985-410.068-1.5-508.388
				c-16.875-54.426,38.998-91.612,38.998-91.612S-138.105,304.168-57.068,310.883z"/>
		</g>
	</g>
</g>
<g>
	<g>
		<g>
			<path style="fill:#815121;" d="M988.965,166.507C322.998,193.505,297.5-74.179,101.01-23.181
				C-83.974-29.659-54.781,55.013-65.28,310c168.562-2.801,205.159,10.664,366.694,0.883
				c41.999-101.995,590.055-51.381,695.051-66.38c185.99-3,754.461-178.49,604.469,10.5
				C1731.428,97.511,1142.045,160.301,988.965,166.507z"/>
		</g>
	</g>
</g>
</svg>
