<?xml version="1.0" encoding="utf-8"?>
<!-- Generator: Adobe Illustrator 15.1.0, SVG Export Plug-In . SVG Version: 6.00 Build 0)  -->
<!DOCTYPE svg PUBLIC "-//W3C//DTD SVG 1.1//EN" "http://www.w3.org/Graphics/SVG/1.1/DTD/svg11.dtd">
<svg version="1.1" id="Layer_1" xmlns="http://www.w3.org/2000/svg" xmlns:xlink="http://www.w3.org/1999/xlink" x="0px" y="0px"
	 width="2168.584px" height="1512.889px" viewBox="0 0 2168.584 1512.889" enable-background="new 0 0 2168.584 1512.889"
	 xml:space="preserve">
<g>
	<g>
		<g>
			<path fill="#815121" d="M-0.004,268.436C0,341,6.347,791.664-0.004,884.148C0,1100.798,0,1256.813-2.769,1496.089
				c168.562-2.801,449.797-14.307,611.333-24.089c-50.733-180.102-198.633-290.488-230-590
				c-6.005-57.335-39.763-507.085,36.591-576.125C462.563,263.007,21.505,146.703-0.004,268.436z"/>
		</g>
	</g>
</g>
<g>
	<g>
		<g>
			<path fill="#815121" d="M1122.573,156.122C529.758,191.498,474.551-7.079,424.472,0C314.046-3.867,0-0.548,0-0.548
				s4.229,194.494-0.003,297.265c168.562-2.801,387.744,33.157,415.158,9.157C494.584,217.271,1448.563,304,1624.563,228
				c154-60,466-16,207,113C2134.563,65,1353.959,142.314,1122.573,156.122z"/>
		</g>
	</g>
</g>
<linearGradient id="SVGID_1_" gradientUnits="userSpaceOnUse" x1="-887.7952" y1="-89.4363" x2="1290.6912" y2="-89.4363" gradientTransform="matrix(-1 0 0 -1 1280.7886 1348.1577)">
	<stop  offset="0" style="stop-color:#551815"/>
	<stop  offset="0" style="stop-color:#1E4622"/>
	<stop  offset="0.6135" style="stop-color:#76C044"/>
	<stop  offset="0.7089" style="stop-color:#88C657"/>
	<stop  offset="1" style="stop-color:#BBDC99"/>
</linearGradient>
<path fill="url(#SVGID_1_)" d="M2166.985,1548.528H-9.903c3.019-18.88,26.7-190.956,16.729-207.868
	c-3.08-5.227,154.492,57.876,154.492,57.876s11.736-57.068,10.5-64.497c-5.759-34.516,86.996,79.006,86.996,79.006
	s131.79-91.569,94.495-54.112c-5.244,5.266,14.999,61.5,14.999,61.5s169.963-58.814,171.107-77.765
	c0.492-8.094,35.466,25.117,35.466,25.117s-9.002-37.723,0-31.727c29.104,19.391,53.045,42.303,53.045,42.303
	s8.897-11.016,43.686-23.795c7.896-2.902-7.612,21.151-7.612,21.151s74.477-32.17,65.303-23.354
	c-7.742,7.441,12.762,24.678,12.762,24.678s49.896,3.525,58.305-35.693c1.279-5.975,18.406,40.98,18.406,40.98
	s23.827-12.68,25.559-18.508c11.051-37.16,6.711,14.541,6.711,14.541s20.549-19.344,24.869-26.439c15.383-25.262,0,23.797,0,23.797
	s37.405-13.491,40.893-21.151c12.697-27.906,2.801,22.475,2.801,22.475s43.842-38.461,41.848-29.084
	c-3.68,17.334,39.896,22.031,39.896,22.031s-12.246-31.287,0-15.422c5.31,6.881,44.885,15.422,44.885,15.422
	s15.916-11.156,14.275-15.422c-9.512-24.679,19.067,21.151,19.067,21.151s21.854-45.83,16.771-23.797
	c-1.541,6.678,21.91,23.797,21.91,23.797s39.011-15.508,42.816-23.797c9.123-19.83,0,18.066,0,18.066s52.453-18.432,71.025-23.354
	c28.266-7.491-43.557,23.354-43.557,23.354s64.504-5.24,65.463-15.422c1-10.576,28.035,15.422,28.035,15.422
	s-13.271-41.422-5.291-27.32c6.186,10.935,64.201,27.32,64.201,27.32s13.399-43.328,14.393-28.641
	c0.52,7.688,19.561,28.641,19.561,28.641s28.351-9.252,31.478-28.641c1.244-7.722,18.662,28.641,18.662,28.641
	s22.215-26.223,32.375-33.93c6.971-5.287-11.728,44.946-11.728,44.946s42.734-32.059,46.98-44.946
	c3.045-9.252-9.586,39.659-9.586,39.659s72.645-27.944,93.311-39.659c18.656-10.574-21.092,33.93-21.092,33.93
	s51.068-5.088,51.975-12.777c3.058-25.998,12.486,14.121,16.789,12.777c12.931-4.041-15.26-55.08,0-33.93
	c7.336,10.168,48.734,33.93,48.734,33.93s23.877-16.303,33.764-33.93c4.525-8.072,0,33.93,0,33.93s37.293-43.494,33.765-33.93
	c-10.793,29.229-1.369,33.93-1.369,33.93s24.198-22.031,29.021-39.217c2.547-9.084,7.074,36.573,7.074,36.573
	s33.186-60.368,25.672-31.286c-2.121,8.213,19.336,31.286,19.336,31.286s46.25-55.082,34.119-36.573
	c-5.772,8.807,15.619,36.573,15.619,36.573s36.246-17.627,42.977-29.965c5.502-10.09,0,42.304,0,42.304s33.769-70.507,28.738-48.912
	c-2.324,9.987,29.438,36.573,29.438,36.573s15.325-15.422,8.657-22.034c-8.606-8.535,48.72,27.764,48.72,27.764
	s-3.705-44.355,0-35.693c6.207,14.506,26.588,39.66,26.588,39.66c0.86-1.265,36.715-64.482,38.381-46.27
	c0.623,6.828-11.098,48.569-11.678,50.233c0,0,55.952-51.19,39.551-23.795c-3.813,6.367,9.051,26.439,9.051,26.439
	s31.621-13.346,36.207-25.646C2170.926,1345.94,2166.985,1548.528,2166.985,1548.528z"/>
<linearGradient id="SVGID_2_" gradientUnits="userSpaceOnUse" x1="959.1018" y1="-235.2332" x2="955.8579" y2="120.9502" gradientTransform="matrix(1 0 0 -1 170.9302 1348.1577)">
	<stop  offset="0" style="stop-color:#551815"/>
	<stop  offset="0.4847" style="stop-color:#1E2122"/>
	<stop  offset="0.6994" style="stop-color:#32612F"/>
	<stop  offset="0.8466" style="stop-color:#76C044"/>
</linearGradient>
<path fill="url(#SVGID_2_)" d="M82.726,1564.079l2094.191-7.497c0,0-176.394-187.635-163.399-209.668
	c3.078-5.227-101.371,47.625-101.371,47.625s-42.498-18.161-41.261-25.588c5.756-34.518-17.984,7.963-17.984,7.963
	s-27.013,2.867-35.647-12.932c-14.377-26.289,7.019,23.947,7.019,23.947s-70.298-69.33-49.275-37.166
	c4.946,7.58-21.021,36.727-21.021,36.727s-46.444-51.463-44.317-43.627c7.52,27.763-16.109,36.134-16.109,36.134
	s-36.905-5.248-47.72-28.201c-15.641-33.195,4.584,32.018,4.584,32.018s-64.546-44.795-55.375-35.981
	c7.743,7.44-37.073,36.616-37.073,36.616s-35.516,4.213-43.921-35.004c-1.28-5.975-18.408,40.98-18.408,40.98
	s-22.09-15.275-16.742-45.238c3.366-18.849-20.632,27.319-20.632,27.319s-17.528-16.717-17.528-24.235
	c0-33.051-10.744,41.86-10.744,41.86s-56.847-53.711-32.379-27.469c18.627,19.98-23.401,21.742-23.401,21.742
	s-37.009-46.834-35.018-37.455c3.682,17.334-12.358,31.728-12.358,31.728s4.587-65.22-17.712-28.646
	c-4.331,7.107-28.136,29.525-28.136,29.525s-35.263-22.174-33.623-26.439c9.511-24.678-12.223,17.625-12.223,17.625
	s-40.41-42.217-35.327-20.184c1.538,6.676,4.762,32.084,4.762,32.084s-35.925-19.035-39.733-27.324
	c-9.122-19.828-9.172,29.967-9.172,29.967s-38.379-32.799-45.153-43.918c-16.738-27.469,11.237,54.397,11.237,54.397
	s-62.431-33.956-53.192-42.647c43.558-40.981-36.188,24.968-36.188,24.968s-6.682-41.228-14.658-27.125
	c-6.189,10.936-34.735,34.766-34.735,34.766s-34.721-56.135-23.908-36.281c3.999,7.343-34.928,41.129-34.928,41.129
	s-9.115-64.018-2.294-44.946c5.415,15.133-54.25,35.252-54.25,35.252s-13.736-27.211-10.604-36.724
	c6.019-18.27-28.367,38.488-28.367,38.488s-15.899-32.299-5.227-43.885c11.623-12.619-41.386,38.151-41.386,38.151
	s-45.229-25.69-42.026-42.303c2.292-11.896-9.933,49.797-9.933,49.797s-22.019-11.408-22.923-19.098
	c-3.059-25.998-12.487,14.121-16.79,12.777c-12.934-4.039,15.26-55.082,0-33.931c-7.338,10.17-18.36,28.957-18.36,28.957
	s-54.252-11.33-64.137-28.957c-4.526-8.072,2.242,52.586,2.242,52.586s-39.537-62.149-36.006-52.586
	c10.792,29.23-23.594,45.537-23.594,45.537s-5.273-39.545,9.502-54.727c8.836-9.08-41.597,41.944-41.597,41.944
	s-14.582-69.615-7.066-40.531c2.122,8.212-44.893,36.732-44.893,36.732s-36.584-62.299-24.453-43.791
	c5.773,8.807-22.925,43.791-22.925,43.791s-4.573-21.35-0.763-34.096c3.82-12.781-26.745,38.779-26.745,38.779
	s-34.065-61.252-29.036-39.66c2.326,9.99,0.766,29.084,0.766,29.084s-47.167-12.338-40.499-18.949
	c8.608-8.535-7.641,34.373-7.641,34.373s-35.265-47.443-38.972-38.781c-6.205,14.508-31.33,32.609-31.33,32.609
	s-8.363-43.916-9.168-35.104c-1.204,13.166-17.574,46.562-17.574,46.562s-36.241-50.346-19.836-22.949
	c3.814,6.367-1.562,27.355-1.562,27.355s-51.174-38.168-50.164-51.259C147.565,1327.718,82.726,1564.079,82.726,1564.079z"/>
<linearGradient id="SVGID_3_" gradientUnits="userSpaceOnUse" x1="-170.9304" y1="-89.4373" x2="2007.5554" y2="-89.4373" gradientTransform="matrix(1 0 0 -1 170.9302 1348.1577)">
	<stop  offset="0" style="stop-color:#004C2A"/>
	<stop  offset="0.1902" style="stop-color:#1E4622"/>
	<stop  offset="1" style="stop-color:#76C044"/>
</linearGradient>
<path fill="url(#SVGID_3_)" d="M0,1526.979l2178.486-10.897c0,0-110.408-160.787-99.595-137.607
	c12.635,27.083-43.263,49.113-43.263,49.113s-37.234-36.678-35.998-44.104c5.759-34.516-47.998,51.717-47.998,51.717
	s-101.792-70.567-64.497-33.11c5.244,5.266-62.996,33.11-62.996,33.11s-38.036-24.354-39.18-43.303
	c-0.492-8.094-22.317,43.303-22.317,43.303s-94.956-50.716-74.996-69.987c25.16-24.293-37.498,60.876-37.498,60.876
	s-49.209-48.098-83.996-60.876c-7.895-2.902,22.499,72.384,22.499,72.384s-60.172-81.198-50.998-72.384
	c7.742,7.44-55.497,72.384-55.497,72.384s-90.587-33.165-98.994-72.384c-1.278-5.976-28.498,72.384-28.498,72.384
	s-2.771-48.284-4.5-54.112c-11.051-37.16-44.998,54.112-44.998,54.112s-17.16-57.027-21.48-64.123c-15.383-25.262,0,23.797,0,23.797
	s-37.406-13.492-40.893-21.151c-12.696-27.906-2.801,22.475-2.801,22.475s-43.842-38.461-41.848-29.084
	c3.679,17.334-39.896,22.031-39.896,22.031s12.246-31.287,0-15.422c-5.308,6.881-44.884,15.422-44.884,15.422
	s-15.916-11.156-14.275-15.422c9.513-24.679-19.068,21.151-19.068,21.151s-21.853-45.83-16.771-23.797
	c1.541,6.678-21.91,23.797-21.91,23.797s-39.011-15.508-42.817-23.797c-9.122-19.83,0,18.066,0,18.066s-52.452-18.433-71.024-23.354
	c-28.266-7.492,43.557,23.354,43.557,23.354s-64.503-5.24-65.462-15.423c-1-10.575-28.036,15.423-28.036,15.423
	s13.271-41.423,5.292-27.32c-6.188,10.934-64.201,27.32-64.201,27.32s-13.4-43.328-14.393-28.642
	c-0.521,7.689-19.562,28.642-19.562,28.642s-28.351-9.252-31.477-28.642c-1.244-7.721-18.663,28.642-18.663,28.642
	s-22.214-26.224-32.374-33.931c-6.972-5.287,11.726,44.947,11.726,44.947s-42.733-32.059-46.979-44.947
	c-3.046-9.252,9.586,39.66,9.586,39.66s-72.646-27.945-93.312-39.66c-18.655-10.574,21.092,33.931,21.092,33.931
	s-51.066-5.089-51.974-12.777c-3.057-25.998-12.487,14.121-16.789,12.777c-12.931-4.041,15.26-55.08,0-33.931
	c-7.337,10.168-48.734,33.931-48.734,33.931s-23.878-16.304-33.764-33.931c-4.525-8.072,0,33.931,0,33.931
	s-37.294-43.494-33.764-33.931c10.792,29.23,1.368,33.931,1.368,33.931s-24.198-22.031-29.021-39.218
	c-2.547-9.084-7.074,36.574-7.074,36.574s-33.186-60.369-25.672-31.287c2.122,8.213-19.336,31.287-19.336,31.287
	s-46.25-55.082-34.118-36.574c5.772,8.808-15.619,36.574-15.619,36.574s-36.247-17.627-42.978-29.965
	c-5.501-10.09,0,42.303,0,42.303s-33.768-70.506-28.738-48.912c2.324,9.988-29.437,36.574-29.437,36.574
	s-15.327-15.422-8.659-22.035c8.607-8.535-48.718,27.765-48.718,27.765s3.704-44.355,0-35.693
	c-6.208,14.506-26.588,39.66-26.588,39.66s-37.575-55.082-38.381-46.271c-1.204,13.164,11.678,50.234,11.678,50.234
	s-55.954-51.191-39.551-23.795c3.813,6.367-9.052,26.438-9.052,26.438s-17.286-16.782-21.872-29.084
	C3.004,1364.052,0,1526.979,0,1526.979z"/>
<linearGradient id="SVGID_4_" gradientUnits="userSpaceOnUse" x1="1997.6531" y1="-35.324" x2="1997.6531" y2="-35.324" gradientTransform="matrix(1 0 0 -1 170.9302 1348.1577)">
	<stop  offset="0" style="stop-color:#551815"/>
	<stop  offset="0" style="stop-color:#1E4622"/>
	<stop  offset="0.2699" style="stop-color:#32612F"/>
	<stop  offset="0.4428" style="stop-color:#76C044"/>
	<stop  offset="0.8037" style="stop-color:#A2D17A"/>
	<stop  offset="1" style="stop-color:#BBDC99"/>
</linearGradient>
<path fill="url(#SVGID_4_)" d="M2168.584,1383.481"/>
<linearGradient id="SVGID_5_" gradientUnits="userSpaceOnUse" x1="919.321" y1="-401.4314" x2="914.5089" y2="126.949" gradientTransform="matrix(1 0 0 -1 170.9302 1348.1577)">
	<stop  offset="0" style="stop-color:#551815"/>
	<stop  offset="0" style="stop-color:#1E4622"/>
	<stop  offset="0.4969" style="stop-color:#76C044"/>
	<stop  offset="0.6258" style="stop-color:#A2D17A"/>
	<stop  offset="0.8712" style="stop-color:#C0DD93"/>
</linearGradient>
<path fill="url(#SVGID_5_)" d="M-0.002,1714.071c504.197,1.855,1843.642,0,2176.586,0c0-23.48,1-349.579,0-337.982
	c-1.356,15.729-27.028,21.659-20.799,33.508c7.609,14.475-3.639,22.194-15.088,20.245c-10.373-1.769-20.91-11.474-17.742-31.286
	c-12,11.041-7.026,12.347-64.776,35.015c-22.558-18.667-29.769-17.75-43.302-35.015c0.078,19.015-24.588,35.682-24.588,35.682
	s-31.944-14.086-34.668-35.682c-2-15.863-16.401,18.487-21.11,19.179c-11.22,1.648-10.89-22.164-10.89-22.164
	s-22.799,25.752-21.354,36.423c1.194,8.827-23.888-11.962-35.672-28.206c-18.254-25.166,7.84,24.248,7.84,24.248
	s-78.537-70.201-55.053-37.633c5.528,7.675-23.484,37.188-23.484,37.188s-51.891-52.109-49.514-44.176
	c8.399,28.11-17.998,36.587-17.998,36.587s-41.232-5.313-53.314-28.556c-17.475-33.612,5.121,32.42,5.121,32.42
	s-72.111-45.356-61.867-36.435c8.652,7.535-41.42,37.077-41.42,37.077s-39.678,4.266-49.069-35.443
	c-1.431-6.05-20.564,41.495-20.564,41.495s-24.68-15.468-18.705-45.807c3.76-19.084-23.051,27.662-23.051,27.662
	s-19.584-16.927-19.584-24.54c0-33.466-12.002,42.388-12.002,42.388s-63.512-54.387-36.176-27.813
	c20.811,20.231-26.146,22.015-26.146,22.015s-41.346-47.422-39.121-37.925c4.111,17.552-13.809,32.125-13.809,32.125
	s5.125-66.038-19.789-29.005c-4.838,7.197-31.434,29.896-31.434,29.896s-39.396-22.452-37.564-26.771
	c10.625-24.986-13.654,17.848-13.654,17.848s-45.147-42.747-39.469-20.438c1.717,6.76,5.318,32.487,5.318,32.487
	s-40.135-19.274-44.394-27.668c-10.19-20.077-10.247,30.344-10.247,30.344s-42.878-33.211-50.446-44.47
	c-18.7-27.813,17.155,37.178,17.155,37.178s-74.351-16.479-64.029-25.28c48.664-41.497-40.43,25.28-40.43,25.28
	s-7.464-41.744-16.378-27.466c-6.913,11.073-38.807,35.202-38.807,35.202s-38.791-56.839-26.711-36.736
	c4.468,7.435-39.022,41.646-39.022,41.646s-10.185-64.821-2.562-45.513c6.051,15.322-60.609,35.694-60.609,35.694
	s-15.347-27.553-11.847-37.184c6.723-18.499-31.693,38.972-31.693,38.972s-17.764-32.705-5.839-44.436
	c12.985-12.778-46.237,38.631-46.237,38.631s-50.53-26.015-46.952-42.834c2.561-12.047-11.099,50.422-11.099,50.422
	s-24.6-11.551-25.608-19.337c-3.418-26.324-13.952,14.298-18.761,12.938c-14.448-4.09,17.05-55.772,0-34.354
	c-8.196,10.298-20.512,29.319-20.512,29.319s-60.612-11.473-71.656-29.319c-5.057-8.174,2.505,53.246,2.505,53.246
	s-44.171-62.932-40.227-53.246c12.059,29.598-26.36,46.107-26.36,46.107s-5.891-40.041,10.617-55.413
	c9.871-9.193-46.473,42.473-46.473,42.473s-16.292-70.489-7.896-41.04c2.371,8.312-50.153,37.192-50.153,37.192
	s-40.873-63.081-27.319-44.341c6.45,8.917-25.613,44.341-25.613,44.341s-5.109-21.616-0.853-34.522
	c4.269-12.942-29.88,39.266-29.88,39.266s-38.06-62.021-32.44-40.158c2.599,10.116,0.854,29.449,0.854,29.449
	s-52.695-12.492-45.246-19.187c9.616-8.644-8.537,34.805-8.537,34.805s-39.399-48.039-43.541-39.269
	c-6.933,14.689-35.002,33.019-35.002,33.019s-9.345-44.467-10.244-35.544c-1.346,13.331-19.633,47.147-19.633,47.147
	s-40.49-50.979-22.162-23.237c4.263,6.446-1.743,27.698-1.743,27.698s-56.036-38.6-56.045-51.901
	C-0.009,1357.414-0.002,1694.945-0.002,1714.071z"/>
</svg>
